<?xml version="1.0" encoding="utf-8"?>
<!-- Generator: Adobe Illustrator 26.0.0, SVG Export Plug-In . SVG Version: 6.00 Build 0)  -->
<svg version="1.1" id="Capa_1" xmlns="http://www.w3.org/2000/svg" xmlns:xlink="http://www.w3.org/1999/xlink" x="0px" y="0px"
	 viewBox="0 0 32 32" style="enable-background:new 0 0 32 32;" xml:space="preserve">
<style type="text/css">
	.st0{fill:#0F0429;}
	.st1{fill:#F5CEE1;}
	.st2{fill:#3A147A;}
	.st3{fill:#FEFEFE;}
</style>
<g>
	<path class="st0" d="M29.41,11.68c-0.23,1.49-0.83,2.82-1.66,4.07c-1.12,1.69-2.7,2.85-4.38,3.91c-1.56,0.98-3.08,2.01-4.19,3.53
		c-1.55,2.12-2.22,4.53-2.37,7.11c-0.03,0.59,0,1.18,0,1.8c-0.35-0.02-0.4-0.25-0.5-0.4c-0.47-0.81-0.98-1.6-1.37-2.44
		c-1.21-2.63-3.12-4.63-5.44-6.3c-1.6-1.15-3.05-2.45-4.06-4.18C3.28,15.07,3.14,11.2,4.87,7.33C6.6,3.47,9.7,1.2,13.84,0.35
		c1.31-0.27,2.65-0.34,3.96-0.09c1.14,0.22,2.23,0.65,3.3,1.14c0.91,0.42,1.67,1,2.39,1.68c2.44,2.31,2.33,5.68,0.8,8.03
		c-0.8,1.24-1.84,2.26-3.12,3.01c-2.1,1.22-3.85,2.85-5.5,4.6c-0.08,0.08-0.13,0.2-0.19,0.29c-0.09,0.06-0.13,0.19-0.29,0.06
		c-0.7-0.57-1.55-0.91-2.29-1.41c-1.35-0.91-2.53-2.01-3.24-3.51C9,12.74,9.12,11.37,9.99,10.1c0.37-0.54,0.83-1.03,1.24-1.55
		c0.33-0.43,0.72-0.81,0.97-1.31c0.24-0.47,0.16-0.98,0.23-1.55c1.32,1.2,2.62,2.32,3.85,3.51c0.88,0.86,1.38,1.92,1.31,3.2
		c-0.06,1.13-0.62,2.02-1.32,2.85c-0.47,0.55-0.84,1.15-0.78,1.99c1.03-0.81,1.93-1.66,2.92-2.39c0.98-0.72,1.56-1.68,1.59-2.96
		c0.04-1.65-0.71-2.87-1.85-3.96c-1.89-1.81-3.75-3.65-5.6-5.49c-0.21-0.21-0.43-0.34-0.71-0.31c-0.74,0.07-1.45,0.24-2.12,0.57
		C9.58,2.75,9.45,2.84,9.49,2.97c0.1,0.28,0.04,0.6,0.2,0.86c0,1.36,0,2.72,0,4.07c-0.46,1.09-1.13,2.06-1.51,3.2
		c-0.88,2.63-0.62,5.03,1.36,7.07c0.98,1.01,2.23,1.7,3.41,2.47c1.3,0.86,2.29,1.94,2.68,3.5c0.08,0.31,0.07,0.67,0.34,0.92
		c0.16-0.13,0.18-0.3,0.25-0.45c0.26-0.62,0.47-1.27,0.8-1.86c1.06-1.88,2.75-3.11,4.56-4.18c1.26-0.74,2.48-1.53,3.65-2.4
		c1.63-1.2,2.95-2.7,3.97-4.45C29.25,11.66,29.3,11.51,29.41,11.68z M16.48,1.9c0.54,0.18,0.98,0.31,1.41,0.48
		c1.2,0.46,2.04,1.26,2.43,2.52c0.24,0.78,0.27,1.58,0.29,2.37c0.04,1.99,0.01,3.98,0.01,5.97c0,0.16,0,0.32,0,0.57
		c0.76-0.51,1.4-1,2.01-1.53c0.46-0.4,0.65-0.89,0.65-1.48c0-1.34-0.01-2.69,0-4.03c0.01-1.56-0.68-2.73-1.91-3.64
		c-0.72-0.53-1.58-0.7-2.41-0.93C18.18,1.99,17.39,1.83,16.48,1.9z M16.56,12.36c0.05-1.7-1.32-3.15-3.05-3.22
		c-1.67-0.07-3.14,1.32-3.22,2.99c-0.09,2.09,1.57,3.25,3.06,3.31C15.01,15.5,16.51,14.06,16.56,12.36z M15.09,27.29
		c0-0.19,0.01-0.37,0-0.56c-0.02-0.2-0.08-0.4-0.09-0.6c-0.12-1.84-1.07-3.21-2.46-4.33c-1.02-0.82-2.2-1.41-3.18-2.28
		c-1.44-1.27-2.52-2.74-2.95-4.64c-0.22-0.98-0.19-1.98-0.23-2.99c-0.11,0.21-0.22,0.41-0.27,0.64c-0.19,0.98-0.37,1.95-0.22,2.97
		c0.19,1.29,0.57,2.49,1.31,3.59c1.06,1.59,2.73,2.47,4.15,3.64c0.98,0.8,1.89,1.64,2.73,2.58C14.41,25.88,14.68,26.61,15.09,27.29z
		"/>
	<path class="st1" d="M29.41,11.68c-0.11-0.17-0.16-0.02-0.2,0.05c-1.02,1.75-2.34,3.25-3.97,4.45c-1.17,0.86-2.39,1.65-3.65,2.4
		c-1.81,1.07-3.5,2.3-4.56,4.18c-0.33,0.58-0.55,1.23-0.8,1.86c-0.06,0.15-0.08,0.33-0.25,0.45c-0.27-0.25-0.27-0.61-0.34-0.92
		c-0.39-1.56-1.37-2.64-2.68-3.5c-1.17-0.77-2.42-1.46-3.41-2.47c-1.98-2.04-2.23-4.44-1.36-7.07C8.57,9.96,9.24,8.99,9.7,7.9
		c0.13-0.14,0.08-0.32,0.08-0.49c0-0.98,0.01-1.97,0-2.95c0-0.21,0.07-0.44-0.08-0.64c-0.17-0.26-0.1-0.58-0.2-0.86
		C9.45,2.84,9.58,2.75,9.72,2.69c0.67-0.32,1.39-0.5,2.12-0.57c0.28-0.03,0.5,0.11,0.71,0.31c1.86,1.84,3.72,3.68,5.6,5.49
		c1.14,1.09,1.89,2.31,1.85,3.96c-0.03,1.28-0.62,2.23-1.59,2.96c-0.99,0.73-1.88,1.58-2.92,2.39c-0.06-0.83,0.31-1.43,0.78-1.99
		c0.7-0.83,1.27-1.72,1.32-2.85c0.06-1.28-0.43-2.34-1.31-3.2C15.05,8,13.75,6.88,12.43,5.68c-0.08,0.57,0,1.08-0.23,1.55
		c-0.25,0.49-0.63,0.88-0.97,1.31c-0.41,0.52-0.87,1.01-1.24,1.55C9.12,11.37,9,12.74,9.66,14.15c0.71,1.5,1.89,2.6,3.24,3.51
		c0.74,0.5,1.59,0.84,2.29,1.41c0.16,0.13,0.2,0,0.29-0.06c0.01,0.38,0.25,0.58,0.57,0.7c0.3,0.11,0.4-0.18,0.58-0.32
		c1.08-0.86,2.12-1.77,3.35-2.45c0.59-0.32,1.11-0.76,1.67-1.13c0.65-0.44,1.34-0.82,1.97-1.3c1.46-1.11,2.91-2.25,3.89-3.84
		c0.66-1.07,1.16-2.22,1.4-3.49c0.19-1,0.02-1.99,0.02-2.98c0-0.45-0.28-0.9-0.38-1.36c0.74,0.46,1.06,1.2,1.33,1.93
		c0.45,1.18,0.5,2.43,0.43,3.68c-0.01,0.16,0.06,0.34-0.1,0.48c-0.01-0.01-0.03-0.02-0.04-0.02c0.01,0.01,0.03,0.01,0.04,0.02
		c-0.05,0.75-0.34,1.43-0.61,2.11C29.51,11.25,29.77,11.56,29.41,11.68z"/>
	<path class="st1" d="M16.48,1.9c0.92-0.07,1.7,0.09,2.47,0.3c0.83,0.23,1.69,0.4,2.41,0.93c1.23,0.91,1.92,2.08,1.91,3.64
		c-0.01,1.34,0,2.69,0,4.03c0,0.59-0.19,1.07-0.65,1.48c-0.61,0.53-1.25,1.02-2.01,1.53c0-0.25,0-0.41,0-0.57
		c0-1.99,0.03-3.98-0.01-5.97c-0.02-0.79-0.05-1.59-0.29-2.37c-0.39-1.26-1.23-2.06-2.43-2.52C17.45,2.21,17.01,2.08,16.48,1.9z"/>
	<path class="st1" d="M16.56,12.36c-0.05,1.69-1.55,3.14-3.21,3.08c-1.49-0.05-3.15-1.22-3.06-3.31c0.08-1.67,1.55-3.06,3.22-2.99
		C15.24,9.22,16.61,10.66,16.56,12.36z M13.4,10.72c-0.83-0.02-1.57,0.7-1.58,1.53c-0.01,0.82,0.76,1.62,1.56,1.62
		c0.79,0.01,1.53-0.74,1.55-1.55C14.96,11.42,14.31,10.74,13.4,10.72z"/>
	<path class="st2" d="M15.09,27.29c-0.41-0.67-0.68-1.4-1.21-1.99c-0.84-0.94-1.76-1.78-2.73-2.58c-1.42-1.16-3.09-2.05-4.15-3.64
		c-0.74-1.1-1.12-2.3-1.31-3.59c-0.15-1.01,0.04-1.99,0.22-2.97c0.04-0.22,0.15-0.43,0.27-0.64c0.04,1.01,0,2.01,0.23,2.99
		c0.43,1.89,1.51,3.37,2.95,4.64c0.99,0.87,2.16,1.46,3.18,2.28c1.39,1.12,2.34,2.49,2.46,4.33c0.01,0.2,0.07,0.4,0.09,0.6
		C15.1,26.91,15.09,27.1,15.09,27.29z"/>
	<path class="st3" d="M9.7,3.82c0.15,0.2,0.08,0.43,0.08,0.64c0.01,0.98,0.01,1.97,0,2.95c0,0.16,0.05,0.34-0.08,0.49
		C9.7,6.54,9.7,5.18,9.7,3.82z"/>
	<path class="st3" d="M30.21,8.93c-0.01-0.01-0.03-0.01-0.04-0.02C30.18,8.91,30.19,8.92,30.21,8.93
		C30.21,8.93,30.21,8.93,30.21,8.93z"/>
	<path class="st0" d="M13.4,10.72c0.91,0.02,1.56,0.7,1.54,1.61c-0.02,0.81-0.77,1.55-1.55,1.55c-0.81-0.01-1.57-0.8-1.56-1.62
		C11.83,11.42,12.57,10.7,13.4,10.72z"/>
</g>
</svg>
